<svg version="1.2" xmlns="http://www.w3.org/2000/svg" viewBox="0 0 862 790" width="862" height="790">
	<title>courier-illustration-ai</title>
	<style>
		.s0 { fill: #ffffff } 
		.s1 { fill: #c9edff } 
		.s2 { fill: #f0b66f } 
		.s3 { fill: #d26637 } 
		.s4 { fill: #aa1d21 } 
		.s5 { fill: #210e2c } 
		.s6 { fill: #3e1d5d;stroke: #210e2c;stroke-miterlimit:10;stroke-width: 4 } 
		.s7 { fill: #f0dfee } 
		.s8 { fill: #3e1d5d } 
		.s9 { fill: #ae93c3 } 
		.s10 { fill: #de5254 } 
		.s11 { fill: #f2b39f } 
		.s12 { fill: none;stroke: #210e2c;stroke-miterlimit:10;stroke-width: 2 } 
		.s13 { fill: #2736c9 } 
		.s14 { fill: none;stroke: #000000;stroke-miterlimit:10 } 
		.s15 { fill: none;stroke: #210e2c;stroke-miterlimit:10;stroke-width: 1.5 } 
		.s16 { fill: #ea9c1a } 
		.s17 { fill: #f2b411 } 
		.s18 { fill: #00933f } 
	</style>
	<g id="BACKGROUND">
		<path id="&lt;Path&gt;" class="s0" d="m938 928h-1000v-1000h1000z"/>
	</g>
	<g id="OBJECTS">
		<g id="&lt;Group&gt;">
			<g id="&lt;Group&gt;">
				<path id="&lt;Path&gt;" class="s1" d="m279.6 473.9c-23.2-29.1-66-61.9-26.8-151.4 39.1-89.4 197.7-109.8 226-25.5 28.2 84.3 39.4 36.9 103.7 62.1 74.9 29.4 78 185.2 3.5 212.6-29.6 10.9-55.4 33.8-84.7 41.6-97.6 25.7-190 15.8-214.7-37-27.8-59.5 24.8-62.5-7-102.4z"/>
				<path id="&lt;Path&gt;" class="s1" d="m292.4 252.4c0 12.5-10.1 22.6-22.6 22.6-12.5 0-22.6-10.1-22.6-22.6 0-12.5 10.1-22.6 22.6-22.6 12.5 0 22.6 10.1 22.6 22.6z"/>
			</g>
			<g id="&lt;Group&gt;">
				<g id="&lt;Group&gt;">
					<g id="&lt;Group&gt;">
						<path id="&lt;Path&gt;" class="s2" d="m358.6 456.8h-79v-79.1h79z"/>
						<g id="&lt;Group&gt;">
							<path id="&lt;Path&gt;" class="s0" d="m313.5 377.7v17.5h11.3v-17.5z"/>
							<path id="&lt;Path&gt;" class="s0" d="m313.5 456.8h11.3v-16.9h-11.3z"/>
						</g>
					</g>
					<g id="&lt;Group&gt;">
						<path id="&lt;Path&gt;" class="s2" d="m361.1 377.7h-62v-62.1h62z"/>
						<g id="&lt;Group&gt;">
							<path id="&lt;Path&gt;" class="s0" d="m325.7 315.6v13.8h8.8v-13.8z"/>
							<path id="&lt;Path&gt;" class="s0" d="m325.7 377.7h8.8v-13.3h-8.8z"/>
						</g>
					</g>
					<g id="&lt;Group&gt;">
						<g id="&lt;Group&gt;">
							<path id="&lt;Path&gt;" class="s3" d="m279.6 378.9q37.3 0 74.7 0 5.2 0 10.4 0c1.6 0 1.6-2.5 0-2.5q-37.3 0-74.7 0-5.2 0-10.4 0c-1.6 0-1.6 2.5 0 2.5z"/>
						</g>
					</g>
				</g>
				<g id="&lt;Group&gt;">
					<g id="&lt;Group&gt;">
						<g id="&lt;Group&gt;">
							<path id="&lt;Path&gt;" class="s4" d="m535.8 392.3q-1.2-0.1-2.4-0.1c-11 0-20 7.8-20 17.4 0 9.6 9 17.3 20 17.3q1.2 0 2.4-0.1z"/>
							<path id="&lt;Path&gt;" class="s0" d="m528.8 392.6v33.9q2.3 0.4 4.6 0.4 1.2 0 2.4-0.1v-34.5q-1.2-0.1-2.4-0.1-2.3 0-4.6 0.4z"/>
							<g id="&lt;Group&gt;">
								<g id="&lt;Group&gt;">
									<path id="&lt;Path&gt;" class="s5" d="m534.5 392.3q0 15.1 0 30.2 0 2.2 0 4.3c0 1.6 2.5 1.6 2.5 0q0-15.1 0-30.2 0-2.2 0-4.3c0-1.6-2.5-1.6-2.5 0z"/>
								</g>
							</g>
						</g>
						<g id="&lt;Group&gt;">
							<g id="&lt;Group&gt;">
								<path id="&lt;Path&gt;" class="s6" d="m618.9 547.3c0 26.3-21.3 47.6-47.5 47.6-26.3 0-47.6-21.3-47.6-47.6 0-26.2 21.3-47.5 47.6-47.5 26.2 0 47.5 21.3 47.5 47.5z"/>
								<path id="&lt;Path&gt;" class="s7" d="m600.9 547.3c0 16.3-13.2 29.5-29.5 29.5-16.3 0-29.6-13.2-29.6-29.5 0-16.3 13.3-29.5 29.6-29.5 16.3 0 29.5 13.2 29.5 29.5z"/>
								<path id="&lt;Path&gt;" class="s8" d="m585.2 547.3c0 7.7-6.2 13.8-13.8 13.8-7.7 0-13.9-6.1-13.9-13.8 0-7.6 6.2-13.8 13.9-13.8 7.6 0 13.8 6.2 13.8 13.8z"/>
								<g id="&lt;Group&gt;">
									<path id="&lt;Path&gt;" class="s9" d="m568.9 529.7c-2.2 0.3-4.2-1.2-4.5-3.4-0.4-2.2 1.2-4.3 3.4-4.6 2.2-0.3 4.2 1.2 4.5 3.4 0.3 2.2-1.2 4.3-3.4 4.6z"/>
									<path id="&lt;Path&gt;" class="s9" d="m558.4 535.1c-1.5 1.6-4.1 1.7-5.7 0.2-1.6-1.5-1.7-4-0.2-5.7 1.5-1.6 4.1-1.7 5.7-0.1 1.6 1.5 1.7 4 0.2 5.6z"/>
									<path id="&lt;Path&gt;" class="s9" d="m553.6 545.8c-0.2 2.2-2.1 3.8-4.3 3.6-2.3-0.2-3.9-2.2-3.7-4.4 0.2-2.2 2.2-3.8 4.4-3.6 2.2 0.2 3.8 2.1 3.6 4.4z"/>
									<path id="&lt;Path&gt;" class="s9" d="m556.6 557.4c1.3 1.8 0.8 4.3-1 5.6-1.9 1.2-4.4 0.7-5.6-1.1-1.3-1.8-0.8-4.3 1-5.6 1.9-1.2 4.4-0.7 5.6 1.1z"/>
									<path id="&lt;Path&gt;" class="s9" d="m565.9 564.4c2.1 0.7 3.2 2.9 2.6 5-0.7 2.1-3 3.3-5.1 2.6-2.1-0.7-3.3-3-2.6-5.1 0.7-2.1 3-3.2 5.1-2.5z"/>
									<path id="&lt;Path&gt;" class="s9" d="m577.9 564c2.1-0.8 4.4 0.2 5.2 2.3 0.8 2.1-0.2 4.4-2.3 5.2-2 0.8-4.4-0.2-5.2-2.3-0.8-2.1 0.2-4.4 2.3-5.2z"/>
									<path id="&lt;Path&gt;" class="s9" d="m586.8 556.5c1.1-1.9 3.6-2.6 5.5-1.4 1.9 1.1 2.5 3.6 1.4 5.5-1.1 1.9-3.6 2.5-5.5 1.4-1.9-1.2-2.5-3.6-1.4-5.5z"/>
									<path id="&lt;Path&gt;" class="s9" d="m589.1 544.9c-0.3-2.2 1.2-4.3 3.4-4.6 2.2-0.3 4.2 1.2 4.5 3.4 0.4 2.2-1.2 4.2-3.4 4.6-2.2 0.3-4.2-1.3-4.5-3.4z"/>
									<path id="&lt;Path&gt;" class="s9" d="m582 531.9c-0.3-2.2 1.2-4.2 3.4-4.5 2.2-0.3 4.2 1.2 4.5 3.4 0.3 2.2-1.2 4.2-3.4 4.5-2.2 0.3-4.2-1.2-4.5-3.4z"/>
								</g>
							</g>
							<path id="&lt;Path&gt;" class="s4" d="m625.2 527.7c-1.6-27.8-24.7-49.8-53.1-49.8-28.3 0-51.4 22-53 49.8z"/>
						</g>
						<path id="&lt;Path&gt;" class="s10" d="m321.5 522.5c0 0-0.7-35.9 27.6-56.1 28.3-20.2 85.1-7.4 85.1-7.4v52.7c0 0-2.5 19 24 20.7 7.3 0.4 15.4 0.8 21.7 0.9 16.6 0.2 28.6 0 28.6 0 0 0 7.9 2.1 10.1-24.9 2.2-26.9-26.1-90.6-41.9-110.4 0 0 6.1-12.3 30.6 6.4 17.3 13.2 36.9 48.8 44.4 83 2.1 9.9 3.6 27.6 3.6 40.5 0 20.4-17.3 25.3-17.3 25.3h-213.5z"/>
						<g id="&lt;Group&gt;">
							<g id="&lt;Group&gt;">
								<path id="&lt;Path&gt;" class="s6" d="m419.6 547.3c0 26.3-21.3 47.6-47.6 47.6-26.2 0-47.5-21.3-47.5-47.6 0-26.2 21.3-47.5 47.5-47.5 26.3 0 47.6 21.3 47.6 47.5z"/>
								<path id="&lt;Path&gt;" class="s7" d="m401.5 547.3c0 16.3-13.2 29.5-29.5 29.5-16.3 0-29.5-13.2-29.5-29.5 0-16.3 13.2-29.5 29.5-29.5 16.3 0 29.5 13.2 29.5 29.5z"/>
								<path id="&lt;Path&gt;" class="s8" d="m385.8 547.3c0 7.7-6.1 13.8-13.8 13.8-7.6 0-13.8-6.1-13.8-13.8 0-7.6 6.2-13.8 13.8-13.8 7.7 0 13.8 6.2 13.8 13.8z"/>
								<g id="&lt;Group&gt;">
									<path id="&lt;Path&gt;" class="s9" d="m369.5 529.7c-2.1 0.3-4.2-1.2-4.5-3.4-0.3-2.2 1.2-4.3 3.4-4.6 2.2-0.3 4.2 1.2 4.6 3.4 0.3 2.2-1.3 4.3-3.5 4.6z"/>
									<path id="&lt;Path&gt;" class="s9" d="m359 535.1c-1.5 1.6-4 1.7-5.6 0.2-1.6-1.5-1.7-4-0.2-5.7 1.5-1.6 4-1.7 5.7-0.1 1.6 1.5 1.7 4 0.1 5.6z"/>
									<path id="&lt;Path&gt;" class="s9" d="m354.3 545.8c-0.2 2.2-2.2 3.8-4.4 3.6-2.2-0.2-3.8-2.2-3.6-4.4 0.2-2.2 2.1-3.8 4.3-3.6 2.2 0.2 3.9 2.1 3.7 4.4z"/>
									<path id="&lt;Path&gt;" class="s9" d="m357.3 557.4c1.2 1.8 0.7 4.3-1.1 5.6-1.8 1.2-4.3 0.7-5.6-1.1-1.2-1.8-0.7-4.3 1.1-5.6 1.8-1.2 4.3-0.7 5.6 1.1z"/>
									<path id="&lt;Path&gt;" class="s9" d="m366.5 564.4c2.1 0.7 3.3 2.9 2.6 5-0.7 2.1-2.9 3.3-5 2.6-2.1-0.7-3.3-3-2.6-5.1 0.7-2.1 2.9-3.2 5-2.5z"/>
									<path id="&lt;Path&gt;" class="s9" d="m378.6 564c2-0.8 4.4 0.2 5.2 2.3 0.8 2.1-0.3 4.4-2.3 5.2-2.1 0.8-4.4-0.2-5.2-2.3-0.8-2.1 0.2-4.4 2.3-5.2z"/>
									<path id="&lt;Path&gt;" class="s9" d="m387.4 556.5c1.2-1.9 3.6-2.6 5.5-1.4 1.9 1.1 2.6 3.6 1.4 5.5-1.1 1.9-3.5 2.5-5.5 1.4-1.9-1.2-2.5-3.6-1.4-5.5z"/>
									<path id="&lt;Path&gt;" class="s9" d="m389.8 544.9c-0.4-2.2 1.2-4.3 3.4-4.6 2.2-0.3 4.2 1.2 4.5 3.4 0.3 2.2-1.2 4.2-3.4 4.6-2.2 0.3-4.2-1.3-4.5-3.4z"/>
									<path id="&lt;Path&gt;" class="s9" d="m380.1 531.9c-0.3-2.2 1.2-4.2 3.4-4.5 2.2-0.3 4.2 1.2 4.5 3.4 0.3 2.2-1.2 4.2-3.4 4.5-2.2 0.3-4.2-1.2-4.5-3.4z"/>
								</g>
							</g>
							<path id="&lt;Path&gt;" class="s4" d="m434.2 553.5c-1.9-34.8-29-62.5-62.2-62.5-33.2 0-60.3 27.7-62.1 62.5z"/>
						</g>
					</g>
					<g id="&lt;Group&gt;">
						<g id="&lt;Group&gt;">
							<path id="&lt;Path&gt;" class="s11" d="m461.7 484v23.9h16.9l0.2-25.6z"/>
							<g id="&lt;Group&gt;">
								<path id="&lt;Path&gt;" class="s0" d="m506.9 533.3l-50.1-0.4 1.4-30.7 24.3 1.8 0.7 12z"/>
								<path id="&lt;Path&gt;" class="s8" d="m457.6 516.1c1.9-0.2 3.8 0.1 5.7 0.9 5.7 2.6 8.1 9.3 5.6 14.9q-0.3 0.6-0.6 1.1l-11.5-0.1z"/>
								<g id="&lt;Group&gt;">
									<g id="&lt;Group&gt;">
										<path id="&lt;Path&gt;" class="s12" d="m493.6 520.2l-3.2 7.1"/>
										<path id="&lt;Path&gt;" class="s12" d="m488.8 517.6l-3.2 7.1"/>
									</g>
									<g id="&lt;Group&gt;">
										<path id="&lt;Path&gt;" class="s12" d="m485.4 516c0 0 13.4-5.4 11.3-9.2-3.5-6.1-11.3 9.2-11.3 9.2z"/>
										<path id="&lt;Path&gt;" class="s12" d="m488.5 503.1l-2.9 12.8"/>
									</g>
								</g>
							</g>
							<g id="&lt;Group&gt;">
								<path id="&lt;Path&gt;" class="s13" d="m483.7 474.3c-0.3-6.2-1.8-18-8.8-30-10.3-17.4-37.8-26.8-68.1-31-30.4-4.1-50 0-50 0 0 0-1.7 3.8-2.2 15.1-0.2 4.7 1.9 17.6 1.9 17.6 0 0 67.2-10.1 85.7 4.9 14.6 11.8 14.6 27.8 14.6 27.8v16.7h27c0 0 0.4-16.1-0.1-21.1z"/>
								<g id="&lt;Group&gt;">
									<g id="&lt;Group&gt;">
										<path id="&lt;Path&gt;" class="s5" d="m456.8 485.9q11.9 0 23.8 0 1.7 0 3.4 0c1.6 0 1.6-2.5 0-2.5q-11.9 0-23.8 0-1.7 0-3.4 0c-1.6 0-1.6 2.5 0 2.5z"/>
									</g>
								</g>
							</g>
						</g>
						<g id="&lt;Group&gt;">
							<g id="&lt;Group&gt;">
								<g id="&lt;Group&gt;">
									<path id="&lt;Path&gt;" class="s10" d="m402.9 308.4l3.7-1-3.6-4.5z"/>
									<path id="&lt;Path&gt;" class="s11" d="m394.5 290.4l-6.9 0.1c-4.6 0-8.2 4.3-8.2 9.5l0.2 10.7q0 0.4 0 0.8-0.1 0.5-0.1 1l0.1 6.5v0.4l0.1 6.4c0 2.4 2 4.3 4.3 4.3l2.8-0.1c2.3 0 4.2-2 4.2-4.3l-0.1-5.7 4-0.1c4.5-0.1 8.2-4.4 8.1-9.6l-0.1-10.6c-0.1-5.2-3.9-9.4-8.4-9.3z"/>
									<path id="&lt;Path&gt;" class="s5" d="m376.3 287.2c0 0 7.1-21.5 23.5-16.2 15.1 4.9 6.5 21.7 2.1 24.3-2.6 1.5-12.7 4.5-17.3 5.3 0 0-3.1 8.5-4.8 9.6l-0.2 8.1c0 0-17.3-6.2-17.7-16.8-0.4-10.6 9-16.7 14.4-14.3z"/>
									<g id="&lt;Group&gt;">
										<path id="&lt;Path&gt;" class="s5" d="m395 304.9c-0.1 0.9 0.5 1.7 1.3 1.8 0.8 0.1 1.6-0.5 1.7-1.3 0.2-0.8-0.4-1.6-1.3-1.7-0.8-0.2-1.6 0.4-1.7 1.2z"/>
										<path id="&lt;Path&gt;" class="s14" d="m401.9 315.4c0 0-2.3 0.9-4.1-1.7"/>
										<path id="&lt;Path&gt;" class="s15" d="m392.9 302.4l2.3-2.1"/>
									</g>
									<g id="&lt;Group&gt;">
										<path id="&lt;Path&gt;" class="s10" d="m363.9 290.4c-1.2 1.6-3.3 2.1-4.7 1.1-1.4-1.1-1.6-3.2-0.4-4.8 1.1-1.7 3.3-2.2 4.7-1.1 1.4 1 1.6 3.2 0.4 4.8z"/>
										<path id="&lt;Path&gt;" class="s16" d="m373.8 281.9c0 0 7.3-18.6 16.5-16.1 9.4 2.5-5.3 21.6-5.3 21.6z"/>
										<path id="&lt;Path&gt;" class="s4" d="m373.1 314.8l15.8-32.6c0 0-13.7-7.1-22.9 0.6-9.2 7.7-9.3 27.7 7.1 32z"/>
									</g>
									<g id="&lt;Group&gt;">
										<path id="&lt;Path&gt;" class="s11" d="m370.9 309.6c0 3 2.5 5.4 5.5 5.4 3-0.1 5.4-2.5 5.4-5.5 0-3-2.5-5.4-5.5-5.4-3.1 0.1-5.5 2.5-5.4 5.5z"/>
										<g id="&lt;Group&gt;">
											<g id="&lt;Group&gt;">
												<path id="&lt;Path&gt;" class="s5" d="m380.1 310.2c0-0.5-0.1-1-0.2-1.4-0.3-1-0.9-1.8-1.9-2.2-0.7-0.4-1.5-0.4-2.3-0.3-0.4 0-0.8 0.3-0.7 0.7 0 0.4 0.3 0.8 0.7 0.8q0.5-0.1 1-0.1 0.1 0 0.1 0c-0.2 0-0.1 0-0.1 0q0.1 0 0.2 0.1 0.2 0 0.4 0.1 0 0 0.1 0c0 0-0.2-0.1-0.1 0q0.1 0 0.2 0 0.1 0.1 0.2 0.2c0.2 0.1-0.1-0.1 0 0q0.1 0.1 0.1 0.1 0.2 0.1 0.3 0.2c0 0.1-0.2-0.1-0.1 0q0.1 0.1 0.1 0.1 0.1 0.2 0.2 0.3 0 0 0 0.1c0.1 0.2 0-0.1 0 0q0.1 0.1 0.1 0.2 0.1 0.3 0.1 0.5 0 0.1 0 0.2c0-0.3 0-0.1 0 0q0.1 0.2 0.1 0.4c-0.1 0.4 0.3 0.8 0.7 0.8 0.4 0 0.7-0.4 0.8-0.8z"/>
											</g>
										</g>
									</g>
								</g>
								<g id="&lt;Group&gt;">
									<g id="&lt;Group&gt;">
										<path id="&lt;Path&gt;" class="s5" d="m381.4 334l8.2-0.1c2.1 0 3.8-1.8 3.8-3.9 0-2.2-1.8-3.9-3.9-3.9l-8.2 0.1c-2.1 0.1-3.8 1.8-3.8 4 0 2.1 1.8 3.8 3.9 3.8z"/>
									</g>
								</g>
								<g id="&lt;Group&gt;">
									<g id="&lt;Group&gt;">
										<path id="&lt;Path&gt;" class="s15" d="m381.8 307l7.8 4.1"/>
										<path id="&lt;Path&gt;" class="s15" d="m390.4 313.7l-10.8 4.1"/>
									</g>
									<path id="&lt;Path&gt;" class="s0" d="m406.6 305.7l-18.3 4.8 2.9 10c0 0 7.4 2.6 11.8-2.7 5-5.9 3.6-12.1 3.6-12.1z"/>
								</g>
							</g>
							<g id="&lt;Group&gt;">
								<path id="&lt;Path&gt;" class="s17" d="m353.2 415.1q-0.3-5-0.3-10.3c0-41.5 14.1-75.1 31.5-75.1 17.4 0 31.5 33.6 31.5 75.1q0 4.6-0.2 9.1z"/>
								<g id="&lt;Group&gt;">
									<path id="&lt;Path&gt;" class="s5" d="m415.9 407.6q-0.1 3.2-0.2 6.3l-62.5 1.2q-0.2-3.7-0.2-7.5z"/>
								</g>
							</g>
						</g>
						<g id="&lt;Group&gt;">
							<g id="&lt;Group&gt;">
								<path id="&lt;Path&gt;" class="s11" d="m449.5 386.2c-5.6 0.8-12.2 2-17.1 2.5l5.5 16.5c4.9-1.6 11.7-3.6 17.3-5.2z"/>
								<path id="&lt;Path&gt;" class="s0" d="m479.4 387.9c-4.4-2.7-10-3.3-22.1-2.6-2.5 0.1-6.3 0.7-10.5 1.3l5.1 14.3c5.4-1.6 10.2-2.9 12.1-3.3 5.6-1.2 11.2-2.2 12.1 1.1 0.9 3.3 0.2 3.9-1.5 4-0.7 0-3.4-2.2-3.7 1.1-0.1 1 0.6 2.3 3.2 3 3.6 1 6.2-0.7 7.7-2.7 2.4-3.2 3.5-12.5-2.4-16.2z"/>
								<path id="&lt;Path&gt;" class="s5" d="m479 399.3c0 2.5-2.1 4.5-4.6 4.5-2.5 0-4.6-2-4.6-4.5 0-2.6 2.1-4.6 4.6-4.6 2.5 0 4.6 2 4.6 4.6z"/>
							</g>
							<g id="&lt;Group&gt;">
								<g id="&lt;Group&gt;">
									<path id="&lt;Path&gt;" class="s18" d="m438 387.7c0 0-28.5 5.6-37.9-32.4-9.3-37.9-33.2-23.1-36.3 1.6-2.2 17.9 1.1 28.9 19.5 43.5 18.5 14.6 53.7 7.2 60.8 2.8z"/>
									<g id="&lt;Group&gt;">
										<path id="&lt;Path&gt;" class="s5" d="m436.2 406.2l-6.1-18.5c4.6 0.6 7.9 0 7.9 0l6.1 15.5c-1.5 1-4.3 2-7.9 3z"/>
									</g>
								</g>
							</g>
						</g>
					</g>
					<path id="&lt;Path&gt;" class="s8" d="m426.9 469.8h-82.8c-6.4 0-11.6-5.2-11.6-11.6v-5.8c0-6.4 5.2-11.5 11.6-11.5h82.8c6.4 0 11.5 5.1 11.5 11.5v5.8c0 6.4-5.1 11.6-11.5 11.6z"/>
				</g>
				<g id="&lt;Group&gt;">
					<g id="&lt;Group&gt;">
						<g id="&lt;Group&gt;">
							<path id="&lt;Path&gt;" class="s5" d="m261.2 598.7q4.9 0 9.9 0 13.4 0 26.8 0 19.9 0 39.8 0 24.2 0 48.4 0 26.7 0 53.3 0 26.7 0 53.5 0 25 0 50.1 0 21.1 0 42.1 0 15.3 0 30.5 0c4.8 0 9.6 0.2 14.3 0q0.4 0 0.7 0c1.6 0 1.6-2.5 0-2.5q-5 0-10 0-13.4 0-26.8 0-19.9 0-39.8 0-24.2 0-48.4 0-26.6 0-53.2 0-26.8 0-53.5 0-25.1 0-50.1 0-21.1 0-42.2 0-15.2 0-30.5 0c-4.7 0-9.5-0.2-14.3 0q-0.3 0-0.6 0c-1.6 0-1.6 2.5 0 2.5z"/>
						</g>
					</g>
					<g id="&lt;Group&gt;">
						<g id="&lt;Group&gt;">
							<path id="&lt;Path&gt;" class="s5" d="m391.3 616.4q8.7 0 17.5 0 20.8 0 41.7 0 25.3 0 50.7 0 21.9 0 43.9 0 7.2 0 14.4 0c2.2 0 4.6 0.3 6.8 0q0.2 0 0.3 0c1.6 0 1.7-2.5 0-2.5q-8.7 0-17.4 0-20.9 0-41.8 0-25.3 0-50.7 0-21.9 0-43.8 0-7.3 0-14.5 0c-2.2 0-4.6-0.2-6.8 0q-0.2 0-0.3 0c-1.6 0-1.6 2.5 0 2.5z"/>
						</g>
					</g>
					<g id="&lt;Group&gt;">
						<g id="&lt;Group&gt;">
							<path id="&lt;Path&gt;" class="s5" d="m236.9 481q26.5 0 53 0 3.8 0 7.5 0c1.6 0 1.6-2.5 0-2.5q-26.5 0-53 0-3.7 0-7.5 0c-1.6 0-1.6 2.5 0 2.5z"/>
						</g>
					</g>
					<g id="&lt;Group&gt;">
						<g id="&lt;Group&gt;">
							<path id="&lt;Path&gt;" class="s5" d="m270.9 498.1q17.1 0 34.2 0 2.4 0 4.8 0c1.6 0 1.6-2.5 0-2.5q-17.1 0-34.2 0-2.4 0-4.8 0c-1.6 0-1.6 2.5 0 2.5z"/>
						</g>
					</g>
				</g>
			</g>
		</g>
	</g>
</svg>