<svg version="1.2" xmlns="http://www.w3.org/2000/svg" viewBox="0 0 1000 508" width="1000" height="508">
	<title>courier-illustration-ai</title>
	<style>
		tspan { white-space:pre } 
		.s0 { fill: #c9edff } 
		.s1 { fill: #7cc9ea } 
		.s2 { fill: #210e2c } 
		.s3 { fill: #020001 } 
		.s4 { fill: none;stroke: #000000;stroke-miterlimit:10;stroke-width: 2 } 
		.s5 { fill: none;stroke: #210e2c;stroke-miterlimit:10 } 
		.s6 { fill: #00933f } 
		.s7 { fill: #de5254 } 
		.s8 { fill: #f2b39f } 
		.s9 { fill: #000000 } 
		.s10 { fill: none;stroke: #000000;stroke-miterlimit:10 } 
		.s11 { fill: #ea9c1a } 
		.s12 { fill: #aa1d21 } 
		.s13 { fill: #ffffff } 
		.s14 { fill: none;stroke: #210e2c;stroke-miterlimit:10;stroke-width: 1.5 } 
		.s15 { fill: none;stroke: #000000;stroke-miterlimit:10;stroke-width: 1.5 } 
		.s16 { fill: #f2b411 } 
		.s17 { fill: none;stroke: #d27f02;stroke-miterlimit:10;stroke-width: 2 } 
		.s18 { fill: #f0e0eb } 
		.t19 { font-size: 22px;fill: #ffffff;font-weight: 900;font-style: italic;font-family: "Montserrat-BlackItalic", "Montserrat" } 
		.s20 { fill: #3e1d5d } 
		.s21 { fill: #f0dfee;stroke: #210e2c;stroke-miterlimit:10;stroke-width: 2 } 
	</style>
	<g id="OBJECTS">
		<g id="&lt;Group&gt;">
			<g id="&lt;Group&gt;">
				<path id="&lt;Path&gt;" class="s0" d="m250 441.5c-67.7-29.6-188-92.1-136.1-256.8 47.6-150.8 295.2-169.6 386.7-106.1 91.6 63.5 156.1-35.7 301.7 45.6 145.6 81.3 70.1 259.4-21.4 311-91.5 51.5-460 37.2-530.9 6.3z"/>
				<path id="&lt;Path&gt;" class="s0" d="m147.3 97.9c0 17.5-14.2 31.7-31.7 31.7-17.5 0-31.7-14.2-31.7-31.7 0-17.6 14.2-31.8 31.7-31.8 17.5 0 31.7 14.2 31.7 31.8z"/>
				<path id="&lt;Path&gt;" class="s0" d="m851 449.6c0 15.4-12.5 27.9-27.9 27.9-15.4 0-27.9-12.5-27.9-27.9 0-15.4 12.5-27.9 27.9-27.9 15.4 0 27.9 12.5 27.9 27.9z"/>
				<path id="&lt;Path&gt;" class="s0" d="m157.5 404.7c0 8.5-6.9 15.4-15.5 15.4-8.5 0-15.4-6.9-15.4-15.4 0-8.6 6.9-15.5 15.4-15.5 8.6 0 15.5 6.9 15.5 15.5z"/>
			</g>
			<g id="&lt;Group&gt;">
				<g id="&lt;Group&gt;">
					<path id="&lt;Path&gt;" class="s1" d="m117.8 377.5c0 0-41.5-23.9-46-46.9-2.2-11.1 13-28.2 53.4 14.4 0 0-18.7-33-3.5-44.3 15.2-11.3 37.4 64.3 37.4 64.3 0 0-8.3-72.6 15.6-79.5 23.9-7 19.8 82.7 19.8 82.7 0 0 12.8-102.3 31.5-105.3 18.7-3.1 19.1 59 18.7 71.6-0.5 12.6 23.7-51.6 40.3-49 16.6 2.6-13 92-13 92z"/>
					<path id="&lt;Path&gt;" class="s1" d="m737.9 402.2l152.8 2.5c0 0 59.8-36.7 51.5-53.6-8.2-16.8-54.2 16.7-54.2 16.7 0 0 24.1-40.1 7.4-45.1-16.7-5-38.2 32-38.2 32 0 0 16.2-54.3-5.8-48.2-22 6-34.6 51-34.6 51 0 0 17-60.9-8.1-57.4-25.1 3.5-28.9 58.1-28.9 58.1 0 0-8.3-49.6-25.9-42.9-17.6 6.6-39 51.4-16 86.9z"/>
				</g>
				<g id="&lt;Group&gt;">
					<g id="&lt;Group&gt;">
						<g id="&lt;Group&gt;">
							<path id="&lt;Path&gt;" class="s2" d="m119.5 367.6c-5.1-3.5-9.9-7.4-14.6-11.4-9.8-8.5-19-18-26.2-28.8-6.4-9.6-12.9-22.6-10.6-34.5 1.6-8.2 7.7-14.4 15.3-17.4 19.7-7.8 41.4 3.4 51.5 20.7 3.9 6.5 6.1 13.7 7.9 21 1.4 5.5 2.9 11.5 2.7 17.3 0 1 0 4.8-1.6 3.2-2.2-2.1-2.9-6.6-3.5-9.4-2.6-14.2-0.3-29.5 4.1-43.1 2.9-8.9 8-18 16.5-22.8 17-9.7 34.6 4.5 43.4 18.6 7.1 11.6 11 25 12.9 38.4 1.2 8.7 1.6 17.5 1.6 26.3-0.1 6-0.2 12.1-1.3 18.1-0.3 1.7-0.8 6.3-2.7 7.2-1.4 0.7-2.2-1.7-2.5-2.6-2.8-7.7-1.9-17.2-0.5-25 2.3-13.2 7.6-25.7 15.2-36.7 7.6-11.1 17.5-22.2 30.4-27.1 9.4-3.5 19.4-2.5 27.8 3.2 10.4 7.1 16.6 19.3 20.6 31 2.7 7.7 4.4 15.7 5.7 23.7 0.1 1 1.6 0.6 1.4-0.4-2.4-15.7-6.8-32.2-16.4-45.2-6.3-8.4-15.2-15.2-26-15.9-11.9-0.7-22.8 5.9-31.2 13.7-11.3 10.6-20 24.3-25.2 38.9-3.7 10.5-5.8 22.2-4.7 33.3 0.2 2.2 1.6 13.1 6.1 10.5 2.1-1.3 2.8-4.9 3.2-7.1 1.3-6 1.5-12.1 1.6-18.2 0.1-17.1-1.3-34.5-7.1-50.7-6.3-17.6-21.2-40.7-43-38.5-24.7 2.4-31.6 35.3-32.3 55.1-0.2 5.9 0.1 12.1 1.5 17.9 0.6 2.6 1.5 6.7 3.8 8.4 1.9 1.3 3.1-0.5 3.5-2.2 0.9-4.5-0.2-9.7-1.1-14.2-2.9-14.2-7.6-28.6-18.4-38.8-7.6-7.3-17.7-11.8-28.2-12.5-8.9-0.5-18.5 1.9-25.2 8-7.1 6.5-8.8 15.7-6.9 24.8 2.8 14.2 11.6 26.8 21 37.4 7.9 8.7 16.7 16.6 26.1 23.7 1.5 1.1 3.1 2.3 4.7 3.4 0.8 0.5 1.5-0.8 0.7-1.3z"/>
						</g>
					</g>
					<g id="&lt;Group&gt;">
						<g id="&lt;Group&gt;">
							<path id="&lt;Path&gt;" class="s2" d="m755.4 397.5c-1.1-5.9-1.7-12-2.1-17.9-1-13.3-0.8-26.8 1.3-40 2.3-14.3 7-29.5 16.6-40.7 2.8-3.2 6.4-6.5 10.9-6.7 3.5-0.2 6.6 1.7 8.9 4.2 6 6.3 8.7 15.9 9.6 24.3 0.7 6.4 0.9 17.1-5.6 20.9-2.5 1.5-6.5 1.8-8.6-0.5-2.4-2.6-2.1-6.9-1.7-10.1 1.7-11.2 8.1-22.1 15.4-30.5 8-9.2 19.1-17.3 31.6-18.3 9.4-0.7 17.6 3.8 23.1 11.3 5.8 7.8 8.8 17.6 10.4 27.2 1.6 9.3 1.9 19 0.3 28.4-0.6 3.3-1.4 6.8-3.1 9.8-0.9 1.8-2.7 4.4-5 4.4-2.1 0-3.3-2.5-4-4.2-1.2-3.3-1.6-6.9-1.6-10.4-0.1-9.5 2.5-19.3 7.6-27.4 6.2-10 16.2-16.5 27.8-18.3 9.2-1.5 18.7 0.4 25 7.6 6.2 7.1 8.1 17 8.2 26.2 0.3 23.7-10.7 48.2-27.7 64.5-4.5 4.3-9.6 8-15 11.1-0.8 0.4-0.1 1.7 0.8 1.3 23-13 38.4-38.1 42.4-63.9 2.9-17.9 0-44-21.6-48.3-11.3-2.2-24 1.7-32.8 9.1-8.3 7-13.3 17.3-15.3 27.9-1.3 7.1-2.1 16.7 1.8 23.2 3.3 5.4 8.3 2.4 10.7-2 4-7.4 4.4-16.9 4.3-25.1-0.2-10.7-2-21.6-6.1-31.5-3.6-8.5-9.4-16.9-18.2-20.6-10.7-4.4-22.9-0.5-32.1 5.7-11.1 7.4-19.7 18.6-24.9 30.8-1.9 4.6-3.5 9.6-3.7 14.7-0.2 3.2 0.3 7 3 9.1 2.5 2 6.3 1.8 9.1 0.5 3.1-1.5 4.9-4.7 5.9-7.8 2.8-8.7 1.2-19.1-1.8-27.6-2.4-6.8-7.1-16.1-15.2-17.1-11-1.5-18.7 12.8-22.6 20.8-6.8 14.1-9.4 30.1-10 45.7-0.5 11.7 0.1 23.5 1.7 35.2 0.3 1.8 0.5 3.6 0.8 5.4 0.2 0.9 1.7 0.5 1.5-0.4z"/>
						</g>
					</g>
				</g>
			</g>
			<g id="&lt;Group&gt;">
				<g id="&lt;Group&gt;">
					<g id="&lt;Group&gt;">
						<g id="&lt;Group&gt;">
							<g id="&lt;Group&gt;">
								<path id="&lt;Path&gt;" class="s3" d="m135.1 442.7q9.8 0 19.5 0 26.3 0 52.5 0 39 0 77.9 0 47.5 0 95 0 51.9 0 103.7 0 52.7 0 105.4 0 48.8 0 97.6 0 41.4 0 82.8 0 29.7 0 59.5 0c9.4 0 18.8 0.2 28.1 0q0.6 0 1.3 0c1.6 0 1.6-2.5 0-2.5q-9.8 0-19.5 0-26.3 0-52.6 0-38.9 0-77.8 0-47.5 0-95 0-51.9 0-103.7 0-52.7 0-105.4 0-48.8 0-97.6 0-41.4 0-82.8 0-29.8 0-59.5 0c-9.4 0-18.8-0.1-28.2 0q-0.6 0-1.2 0c-1.6 0-1.6 2.5 0 2.5z"/>
							</g>
						</g>
						<g id="&lt;Group&gt;">
							<g id="&lt;Group&gt;">
								<path id="&lt;Path&gt;" class="s3" d="m478.6 460q15 0 30.1 0 36 0 72 0 43.5 0 87 0 37.7 0 75.4 0 12.4 0 24.7 0c3.9 0 7.9 0.2 11.8 0q0.2 0 0.5 0c1.6 0 1.6-2.5 0-2.5q-15 0-30.1 0-36 0-72 0-43.5 0-87 0-37.7 0-75.4 0-12.4 0-24.7 0c-3.9 0-7.9-0.2-11.8 0q-0.3 0-0.5 0c-1.6 0-1.6 2.5 0 2.5z"/>
							</g>
						</g>
						<g id="&lt;Group&gt;">
							<g id="&lt;Group&gt;">
								<path id="&lt;Path&gt;" class="s3" d="m250 460q8.6 0 17.2 0 20.8 0 41.5 0 25.1 0 50.1 0 21.6 0 43.2 0 7.2 0 14.4 0c2.2 0 4.6 0.3 6.8 0q0.2 0 0.3 0c1.6 0 1.6-2.5 0-2.5q-8.6 0-17.2 0-20.8 0-41.5 0-25 0-50.1 0-21.6 0-43.2 0-7.2 0-14.4 0c-2.2 0-4.6-0.3-6.8 0q-0.1 0-0.3 0c-1.6 0-1.6 2.5 0 2.5z"/>
							</g>
						</g>
						<g id="&lt;Group&gt;">
							<g id="&lt;Group&gt;">
								<path id="&lt;Path&gt;" class="s3" d="m382.5 478.8q8.6 0 17.2 0 20.8 0 41.5 0 25.1 0 50.1 0 21.6 0 43.3 0 7.1 0 14.3 0c2.2 0 4.6 0.3 6.8 0q0.2 0 0.3 0c1.6 0 1.6-2.5 0-2.5q-8.6 0-17.2 0-20.8 0-41.5 0-25 0-50 0-21.7 0-43.3 0-7.2 0-14.4 0c-2.2 0-4.6-0.3-6.8 0q-0.1 0-0.3 0c-1.6 0-1.6 2.5 0 2.5z"/>
							</g>
						</g>
					</g>
					<g id="&lt;Group&gt;">
						<g id="&lt;Group&gt;">
							<g id="&lt;Group&gt;">
								<path id="&lt;Path&gt;" class="s2" d="m227.9 206.2q22.8 0 45.5 0 3.3 0 6.6 0c1.7 0 1.7-2.5 0-2.5q-22.7 0-45.5 0-3.3 0-6.6 0c-1.6 0-1.6 2.5 0 2.5z"/>
							</g>
						</g>
						<g id="&lt;Group&gt;">
							<g id="&lt;Group&gt;">
								<path id="&lt;Path&gt;" class="s2" d="m192.9 222.6q22.8 0 45.5 0 3.3 0 6.7 0c1.6 0 1.6-2.5 0-2.5q-22.8 0-45.6 0-3.3 0-6.6 0c-1.6 0-1.6 2.5 0 2.5z"/>
							</g>
						</g>
						<g id="&lt;Group&gt;">
							<g id="&lt;Group&gt;">
								<path id="&lt;Path&gt;" class="s2" d="m210 254.2q22.8 0 45.5 0 3.4 0 6.7 0c1.6 0 1.6-2.5 0-2.5q-22.8 0-45.6 0-3.3 0-6.6 0c-1.6 0-1.6 2.5 0 2.5z"/>
							</g>
						</g>
					</g>
				</g>
				<g id="&lt;Group&gt;">
					<g id="&lt;Group&gt;">
						<g id="&lt;Group&gt;">
							<path id="&lt;Path&gt;" class="s4" d="m745.8 269.9c0 9.3-4.1 16.9-9.2 16.9-5.1 0-9.2-7.6-9.2-16.9 0-9.4 4.1-17 9.2-17 5.1 0 9.2 7.6 9.2 17z"/>
							<path id="&lt;Path&gt;" class="s4" d="m734.7 271.9l21.4 10"/>
						</g>
						<g id="&lt;Group&gt;">
							<path id="&lt;Path&gt;" class="s5" d="m716.9 197.2v21.4"/>
							<path id="&lt;Path&gt;" class="s6" d="m716.9 222h-3.3c-0.8 0-1.3-0.9-0.9-1.6l1.6-2.8 1.7-2.8c0.4-0.7 1.4-0.7 1.8 0l1.6 2.8 1.6 2.8c0.4 0.7-0.1 1.6-0.9 1.6z"/>
							<path id="&lt;Path&gt;" class="s6" d="m716.9 214.6h-3.3c-0.8 0-1.3-0.9-0.9-1.6l1.6-2.8 1.7-2.8c0.4-0.7 1.4-0.7 1.8 0l1.6 2.8 1.6 2.8c0.4 0.7-0.1 1.6-0.9 1.6z"/>
						</g>
					</g>
					<g id="&lt;Group&gt;">
						<g id="&lt;Group&gt;">
							<g id="&lt;Group&gt;">
								<g id="&lt;Group&gt;">
									<path id="&lt;Path&gt;" class="s7" d="m685.1 228.2l2.5-0.7-2.4-3z"/>
									<path id="&lt;Path&gt;" class="s8" d="m679.4 216.1h-4.6c-3 0.1-5.5 3-5.4 6.4v7.2q0.1 0.3 0.1 0.6-0.1 0.3-0.1 0.6l0.1 4.4v0.2 4.4c0.1 1.5 1.4 2.8 2.9 2.8h1.9c1.5-0.1 2.8-1.4 2.8-2.9l-0.1-3.9h2.7c3.1-0.1 5.5-3 5.5-6.4l-0.1-7.2c-0.1-3.5-2.6-6.3-5.7-6.2z"/>
									<path id="&lt;Path&gt;" class="s2" d="m669.5 236.2c0 0-10.9-3.4-11.4-11.7-0.5-8.3 5.7-10.9 9.2-10.5 0 0 6.1-9 14.5-9 8.5 0 11 8.7 7.1 12.2-4 3.6-14.9 2.9-14.9 2.9 0 0-2.6 7.9-4.6 9.6z"/>
									<g id="&lt;Group&gt;">
										<path id="&lt;Path&gt;" class="s9" d="m679.8 225.8c-0.1 0.6 0.3 1.1 0.9 1.2 0.5 0.1 1-0.3 1.1-0.9 0.1-0.5-0.3-1-0.8-1.1-0.6-0.1-1.1 0.3-1.2 0.8z"/>
										<path id="&lt;Path&gt;" class="s10" d="m684.4 232.9c0 0-1.5 0.5-2.7-1.2"/>
									</g>
									<g id="&lt;Group&gt;">
										<path id="&lt;Path&gt;" class="s7" d="m659.8 218.7c-0.8 1.1-2.2 1.4-3.1 0.7-0.9-0.7-1-2-0.3-3.1 0.8-1.1 2.2-1.4 3.1-0.7 0.9 0.7 1 2.1 0.3 3.1z"/>
										<path id="&lt;Path&gt;" class="s11" d="m666.2 213.2c0 0 4.7-12 10.6-10.4 6.2 1.6-3.4 14-3.4 14z"/>
										<path id="&lt;Path&gt;" class="s12" d="m665.7 234.5l10.2-21.1c0 0-8.8-4.6-14.8 0.4-6 5-6 17.9 4.6 20.7z"/>
									</g>
									<g id="&lt;Group&gt;">
										<path id="&lt;Path&gt;" class="s8" d="m663.6 229c0 2 1.7 3.6 3.7 3.6 2.1-0.1 3.7-1.7 3.6-3.7 0-2-1.6-3.6-3.7-3.6-2 0-3.6 1.7-3.6 3.7z"/>
										<g id="&lt;Group&gt;">
											<g id="&lt;Group&gt;">
												<path id="&lt;Path&gt;" class="s2" d="m670 229.4c0-0.4 0-0.7-0.1-1.1-0.2-0.6-0.7-1.3-1.4-1.6q-0.8-0.3-1.6-0.2c-0.2 0-0.4 0-0.6 0.2-0.1 0.1-0.2 0.3-0.2 0.5 0 0.2 0.1 0.4 0.2 0.6 0.2 0.1 0.4 0.2 0.6 0.2q0.3-0.1 0.7 0-0.1 0-0.2-0.1 0.3 0.1 0.5 0.2 0-0.1-0.1-0.1 0.2 0.1 0.4 0.2-0.1 0-0.2-0.1 0.2 0.1 0.3 0.3-0.1-0.1-0.1-0.2 0.1 0.2 0.2 0.5 0-0.1-0.1-0.2 0.2 0.3 0.2 0.7 0-0.1 0-0.2 0 0.2 0 0.4c0 0.4 0.4 0.8 0.8 0.7 0.4 0 0.7-0.3 0.7-0.7z"/>
											</g>
										</g>
									</g>
								</g>
								<g id="&lt;Group&gt;">
									<g id="&lt;Group&gt;">
										<path id="&lt;Path&gt;" class="s2" d="m670.3 244.3l6.2-0.1c1.2 0 2.2-1 2.2-2.2v-0.8c0-1.2-1-2.2-2.2-2.2l-6.2 0.1c-1.3 0-2.3 1-2.2 2.3v0.7c0 1.2 1 2.2 2.2 2.2z"/>
									</g>
								</g>
								<g id="&lt;Group&gt;">
									<path id="&lt;Path&gt;" class="s13" d="m687.8 226.3l-13.4 2.7 2.9 7.3c0 0 4.9 1.7 7.9-1.9 3.3-3.9 2.6-8.1 2.6-8.1z"/>
									<g id="&lt;Group&gt;">
										<path id="&lt;Path&gt;" class="s14" d="m670.9 227.2l4.4 2.3"/>
										<path id="&lt;Path&gt;" class="s14" d="m675.9 232l-7.2 2.7"/>
									</g>
								</g>
							</g>
						</g>
						<path id="&lt;Path&gt;" class="s15" d="m680.8 223.2l-2.1 0.7"/>
						<g id="&lt;Group&gt;">
							<path id="&lt;Path&gt;" class="s11" d="m651.8 299.7q-0.2-3.4-0.2-6.9c0-27.8 9.4-50.3 21.1-50.3 11.7 0 21.1 22.5 21.1 50.3q0 3.1-0.2 6.1z"/>
						</g>
						<g id="&lt;Group&gt;">
							<g id="&lt;Group&gt;">
								<g id="&lt;Group&gt;">
									<path id="&lt;Path&gt;" class="s8" d="m723.2 285.7c-4.2 1.9-7.5 3.4-7.5 3.4l-5.7-9.8c0 0 4.5-1.8 8.3-4.1z"/>
									<path id="&lt;Path&gt;" class="s13" d="m716.4 276.2c0.9-0.4 1.8-1 2.7-1.5 3.9-2.5 10.4-8.7 11.1-7.8 0.6 0.9-3.6 5.8-3.6 5.8 0 0 10.5-5.2 11-4.4 0.6 0.8-5.1 5.1-5.1 5.1 0 0 6.5-3.2 6.8-2.2 0.3 0.9-6.1 4.8-6.1 4.8 0 0 6.8-3 7-2.1 0.1 0.9-5.5 4.2-5.5 4.2 0 0 6.6-3 5.8-1.3-0.6 1.1-11.8 6.4-18.9 9.6z"/>
								</g>
								<g id="&lt;Group&gt;">
									<path id="&lt;Path&gt;" class="s6" d="m712.1 278.4c0 0-18.6 5.8-27.5-18.9-8.9-24.6-23.8-13-24.1 3.6-0.2 12.1 2.7 19.2 16 27.6 13.4 8.5 36.3 1.1 40.7-2.3z"/>
									<g id="&lt;Group&gt;">
										<path id="&lt;Path&gt;" class="s2" d="m712.2 290.9l-5.4-11.9c3.2 0.1 5.3-0.6 5.3-0.6l5.1 10c-0.9 0.7-2.7 1.6-5 2.5z"/>
									</g>
								</g>
							</g>
						</g>
					</g>
					<g id="&lt;Group&gt;">
						<path id="&lt;Compound Path&gt;" fill-rule="evenodd" class="s16" d="m834.1 306.1l7 59.3c0.6 4.8-3.3 9.1-8.2 9.1l-215.9-0.7c-4.6-0.1-8.3-3.9-8.2-8.5l4.2-169.2c0.1-4.5 3.8-8 8.2-8h117c3.6 0 6.8 2.3 7.9 5.8l36.6 76.7c0.8 2.6 33.5 18.8 44.2 25.8 4.2 2.8 6.8 6.5 7.2 9.7zm-171.4-19.3h85.9c5.7 0 9.6-5.6 7.7-11l-25.6-71.8c-1.2-3.2-4.3-5.4-7.8-5.4h-66.7c-4.8 0-8.6 4.1-8.1 8.9l6.5 71.8c0.3 4.2 3.9 7.5 8.1 7.5z"/>
						<g id="&lt;Group&gt;">
							<g id="&lt;Group&gt;">
								<path id="&lt;Path&gt;" class="s17" d="m730 301.6h-73.9v52"/>
								<path id="&lt;Path&gt;" class="s17" d="m691.1 355.5c0 0 14.2-18.8 38.9-16.4"/>
								<path id="&lt;Path&gt;" class="s17" d="m665 311.2h21.5"/>
								<path id="&lt;Path&gt;" class="s18" d="m834.4 308.4h-24.4c-4.6 0-8.3 3.8-8.3 8.4v5.6c0 4.6 3.7 8.4 8.3 8.4h27z"/>
							</g>
						</g>
					</g>
					<g id="&lt;Group&gt;">
						<path id="&lt;Path&gt;" class="s7" d="m635.3 379.3h-364.7v-266.6h364.7z"/>
						<path id="&lt;Path&gt;" class="s12" d="m270.6 330.8h364.7v-31.1h-364.7z"/>
						<text id="DELIVERY
" style="transform: matrix(2,0,0,2,446.173,242.683)" >
							<tspan x="-63.8" y="0" class="t19" dx="0 1 1 1 1 1 1 1 1" >DELIVERY
</tspan>
						</text>
					</g>
					<path id="&lt;Path&gt;" class="s20" d="m843.1 387.3h-581.2c-4.4 0-7.9-3.6-7.9-8 0-4.4 3.5-8 7.9-8h581.2c4.4 0 7.9 3.6 7.9 8 0 4.4-3.5 8-7.9 8z"/>
					<g id="&lt;Group&gt;">
						<g id="&lt;Group&gt;">
							<path id="&lt;Path&gt;" class="s20" d="m780.9 393c0 26.2-21.2 47.5-47.4 47.5-26.2 0-47.5-21.3-47.5-47.5 0-26.2 21.3-47.4 47.5-47.4 26.2 0 47.4 21.2 47.4 47.4z"/>
							<path id="&lt;Path&gt;" class="s21" d="m762.9 393c0 16.3-13.2 29.5-29.4 29.5-16.3 0-29.5-13.2-29.5-29.5 0-16.3 13.2-29.4 29.5-29.4 16.2 0 29.4 13.1 29.4 29.4z"/>
							<path id="&lt;Path&gt;" class="s20" d="m739.9 393c0 3.6-2.9 6.5-6.4 6.5-3.6 0-6.5-2.9-6.5-6.5 0-3.6 2.9-6.5 6.5-6.5 3.5 0 6.4 2.9 6.4 6.5z"/>
							<g id="&lt;Group&gt;">
								<g id="&lt;Group&gt;">
									<path id="&lt;Path&gt;" class="s2" d="m688.5 393c0.1-18.7 11.9-35.9 29.6-42.3 17.7-6.3 37.7-0.9 49.8 13.4 6.8 8 10.4 18.4 10.5 28.9 0 3.2 5 3.2 5 0-0.1-20.8-13.1-39.6-32.6-46.9-19.6-7.3-42.5-1.1-55.7 15-7.5 9-11.5 20.2-11.6 31.9 0 3.2 5 3.2 5 0z"/>
								</g>
							</g>
						</g>
						<g id="&lt;Group&gt;">
							<path id="&lt;Path&gt;" class="s20" d="m419.8 393c0 26.2-21.3 47.5-47.5 47.5-26.2 0-47.5-21.3-47.5-47.5 0-26.2 21.3-47.4 47.5-47.4 26.2 0 47.5 21.2 47.5 47.4z"/>
							<path id="&lt;Path&gt;" class="s21" d="m401.8 393c0 16.3-13.2 29.5-29.5 29.5-16.3 0-29.5-13.2-29.5-29.5 0-16.3 13.2-29.4 29.5-29.4 16.3 0 29.5 13.1 29.5 29.4z"/>
							<path id="&lt;Path&gt;" class="s20" d="m378.8 393c0 3.6-2.9 6.5-6.5 6.5-3.6 0-6.5-2.9-6.5-6.5 0-3.6 2.9-6.5 6.5-6.5 3.6 0 6.5 2.9 6.5 6.5z"/>
							<g id="&lt;Group&gt;">
								<g id="&lt;Group&gt;">
									<path id="&lt;Path&gt;" class="s2" d="m327.3 393c0.2-18.7 11.9-35.9 29.7-42.3 17.6-6.3 37.6-0.9 49.7 13.4 6.9 8 10.5 18.4 10.6 28.9 0 3.2 5 3.2 5 0-0.2-20.8-13.2-39.6-32.7-46.9-19.5-7.3-42.4-1.1-55.7 15-7.4 9-11.5 20.2-11.6 31.9 0 3.2 5 3.2 5 0z"/>
								</g>
							</g>
						</g>
					</g>
				</g>
			</g>
		</g>
	</g>
</svg>